<?xml version="1.0" ?><svg xmlns="http://www.w3.org/2000/svg" xmlns:xlink="http://www.w3.org/1999/xlink" version="1.1" viewBox="0 0 512 512" style="enable-background:new 0 0 512 512;" xml:space="preserve"><g id="_x31_1_x2C__harmonica_x2C__music_and_multimedia_x2C__folk_x2C__wind_instrument_x2C__musical_instrument_x2C__instruments"><g><path d="M471,106c-18.14,0-409.953,0-430,0c-22.056,0-40,17.944-40,40c0,1.729,0,214.943,0,220c0,22.056,17.944,40,40,40h430    c22.056,0,40-17.944,40-40c0-5.047,0-218.273,0-220C511,123.944,493.056,106,471,106z M421,126h30v20h-30V126z M331,126h30v20h-30    V126z M241,126h30v20h-30V126z M151,126h30v20h-30V126z M61,126h30v20H61V126z M491,366c0,11.028-8.972,20-20,20H41    c-11.028,0-20-8.972-20-20V206h470V366z M491,186H21v-40c0-11.028,8.972-20,20-20v30c0,5.523,4.477,10,10,10h50    c5.523,0,10-4.477,10-10v-30h20v30c0,5.523,4.477,10,10,10h50c5.523,0,10-4.477,10-10v-30h20v30c0,5.523,4.477,10,10,10h50    c5.523,0,10-4.477,10-10v-30h20v30c0,5.523,4.477,10,10,10h50c5.523,0,10-4.477,10-10v-30h20v30c0,5.523,4.477,10,10,10h50    c5.523,0,10-4.477,10-10v-30c11.028,0,20,8.972,20,20V186z"/><circle cx="331" cy="296" r="10"/><circle cx="181" cy="296" r="10"/><path d="M91,336h20c11.028,0,20,8.972,20,20c0,5.523,4.477,10,10,10h230c5.523,0,10-4.477,10-10c0-11.028,8.972-20,20-20h20    c5.523,0,10-4.477,10-10v-60c0-5.523-4.477-10-10-10h-20c-11.046,0-20-8.955-20-20c0-5.523-4.477-10-10-10H141    c-5.523,0-10,4.477-10,10c0,11.046-8.955,20-20,20H91c-5.523,0-10,4.477-10,10v60C81,331.523,85.477,336,91,336z M331,266    c16.542,0,30,13.458,30,30s-13.458,30-30,30s-30-13.458-30-30S314.458,266,331,266z M181,266c16.542,0,30,13.458,30,30    s-13.458,30-30,30s-30-13.458-30-30S164.458,266,181,266z"/></g></g><g id="Layer_1"/></svg>