<?xml version="1.0" ?><!DOCTYPE svg  PUBLIC '-//W3C//DTD SVG 1.1//EN'  'http://www.w3.org/Graphics/SVG/1.1/DTD/svg11.dtd'><svg enable-background="new 0 0 75 75" height="75px" id="Layer_1" version="1.1" viewBox="0 0 75 75" width="75px" xml:space="preserve" xmlns="http://www.w3.org/2000/svg" xmlns:xlink="http://www.w3.org/1999/xlink"><g><g><g><g><g><path d="M21.939,56.627v-0.242h31.139v0.242c7.254-4.971,12.016-13.307,12.016-22.773       C65.094,18.615,52.75,6.26,37.5,6.26c-15.234,0-27.594,12.355-27.594,27.594C9.906,43.32,14.674,51.656,21.939,56.627z" fill="#AEDCFF"/><path d="M24.359,56.627v-0.205h26.297v0.205c6.125-4.197,10.148-11.238,10.148-19.232       c0-12.869-10.426-23.305-23.305-23.305c-12.865,0-23.305,10.436-23.305,23.305C14.195,45.389,18.223,52.43,24.359,56.627z" fill="#F0F6FC"/><path d="M26.594,56.627v-0.17H48.42v0.17c5.084-3.484,8.422-9.326,8.422-15.963       c0-10.68-8.652-19.342-19.342-19.342c-10.678,0-19.342,8.662-19.342,19.342C18.158,47.301,21.5,53.143,26.594,56.627z" fill="#D9F1FF"/><path d="M28.91,56.627v-0.133H46.1v0.133c4.004-2.744,6.633-7.346,6.633-12.57       c0-8.412-6.814-15.234-15.232-15.234c-8.408,0-15.232,6.822-15.232,15.234C22.268,49.281,24.898,53.883,28.91,56.627z" fill="#97D7FF"/><path d="M37.5,28.822c-8.41,0-15.232,6.822-15.232,15.234c0,5.225,2.631,9.826,6.643,12.57v-0.133h8.59V28.822z       " fill="#AEDCFF"/><polygon fill="none" points="       19.922,25.033 19.541,24.377 19.922,23.721 20.68,23.721 21.055,24.377 20.68,25.033      " stroke="#D9EBFC" stroke-linecap="round" stroke-linejoin="round" stroke-miterlimit="10" stroke-width="1.5"/><polygon fill="none" points="       60.141,34.23 59.762,33.574 60.141,32.918 60.898,32.918 61.273,33.574 60.898,34.23      " stroke="#D9EBFC" stroke-linecap="round" stroke-linejoin="round" stroke-miterlimit="10" stroke-width="1.5"/><polygon fill="none" points="       15.5,33.291 16.156,32.912 16.811,33.291 16.811,34.047 16.156,34.426 15.5,34.047      " stroke="#D9EBFC" stroke-linecap="round" stroke-linejoin="round" stroke-miterlimit="10" stroke-width="1.5"/><polygon fill="none" points="       57.422,26.668 58.078,26.289 58.734,26.668 58.734,27.426 58.078,27.803 57.422,27.426      " stroke="#D9EBFC" stroke-linecap="round" stroke-linejoin="round" stroke-miterlimit="10" stroke-width="1.5"/><circle cx="25.167" cy="16.293" fill="none" r="0.079" stroke="#D9EBFC" stroke-linecap="round" stroke-linejoin="round" stroke-miterlimit="10" stroke-width="1.5"/><circle cx="43.669" cy="11.844" fill="none" r="0.079" stroke="#D9EBFC" stroke-linecap="round" stroke-linejoin="round" stroke-miterlimit="10" stroke-width="1.5"/><circle cx="53.226" cy="20.398" fill="none" r="0.079" stroke="#D9EBFC" stroke-linecap="round" stroke-linejoin="round" stroke-miterlimit="10" stroke-width="1.5"/><circle cx="34.781" cy="11.764" fill="none" r="0.078" stroke="#D9EBFC" stroke-linecap="round" stroke-linejoin="round" stroke-miterlimit="10" stroke-width="1.5"/><circle cx="21.055" cy="18.451" fill="none" r="0.078" stroke="#D9EBFC" stroke-linecap="round" stroke-linejoin="round" stroke-miterlimit="10" stroke-width="1.5"/><circle cx="52.204" cy="23.746" fill="none" r="0.079" stroke="#D9EBFC" stroke-linecap="round" stroke-linejoin="round" stroke-miterlimit="10" stroke-width="1.5"/><path d="       M45.104,17.266c0,0.043-0.035,0.08-0.078,0.08s-0.08-0.037-0.08-0.08c0-0.041,0.037-0.078,0.08-0.078       S45.104,17.225,45.104,17.266z" fill="none" stroke="#D9EBFC" stroke-linecap="round" stroke-linejoin="round" stroke-miterlimit="10" stroke-width="1.5"/><circle cx="49.766" cy="14.896" fill="none" r="0.08" stroke="#D9EBFC" stroke-linecap="round" stroke-linejoin="round" stroke-miterlimit="10" stroke-width="1.5"/><circle cx="31.468" cy="15.658" fill="none" r="0.079" stroke="#D9EBFC" stroke-linecap="round" stroke-linejoin="round" stroke-miterlimit="10" stroke-width="1.5"/><path d="       M39.004,14.816c0,0.043-0.037,0.08-0.08,0.08c-0.041,0-0.08-0.037-0.08-0.08s0.039-0.078,0.08-0.078       C38.967,14.738,39.004,14.773,39.004,14.816z" fill="none" stroke="#D9EBFC" stroke-linecap="round" stroke-linejoin="round" stroke-miterlimit="10" stroke-width="1.5"/><polygon fill="#1BC1A9" points="21.939,56.385 53.078,56.385 56.26,68.74 18.752,68.74      "/><polygon fill="#0CAFAF" points="27.488,56.385 47.525,56.385 49.574,68.74 25.439,68.74      "/></g></g></g><path d="M53.729,60.047c-2.331,0-4.364,1.303-5.41,3.217c-1.046-1.914-3.079-3.217-5.41-3.217    c-2.33,0-4.361,1.303-5.406,3.217c-1.046-1.914-3.079-3.217-5.41-3.217s-4.362,1.303-5.408,3.217    c-1.046-1.914-3.079-3.217-5.41-3.217c-0.414,0-0.75,0.336-0.75,0.75s0.336,0.75,0.75,0.75c2.083,0,3.83,1.383,4.425,3.271    c-0.192,0.227-0.321,0.512-0.321,0.832c0,0.617,0.438,1.111,1.015,1.246c0.09,0.039,0.188,0.061,0.292,0.061    s0.202-0.021,0.292-0.061c0.574-0.137,1.011-0.629,1.011-1.246c0-0.32-0.128-0.602-0.318-0.83    c0.594-1.889,2.341-3.273,4.424-3.273c2.082,0,3.829,1.383,4.425,3.27c-0.193,0.229-0.323,0.512-0.323,0.834    c0,0.617,0.439,1.111,1.017,1.248c0.09,0.037,0.188,0.059,0.292,0.059s0.202-0.021,0.292-0.061    c0.575-0.135,1.013-0.629,1.013-1.246c0-0.32-0.129-0.604-0.32-0.83c0.594-1.891,2.34-3.273,4.422-3.273    c2.083,0,3.831,1.383,4.426,3.273c-0.191,0.227-0.32,0.51-0.32,0.83c0,0.617,0.438,1.111,1.013,1.246    c0.09,0.039,0.188,0.061,0.292,0.061s0.202-0.021,0.292-0.061c0.575-0.135,1.013-0.629,1.013-1.246c0-0.32-0.129-0.604-0.32-0.83    c0.595-1.891,2.343-3.273,4.426-3.273c0.414,0,0.75-0.336,0.75-0.75S54.143,60.047,53.729,60.047z" fill="#109BAD"/></g><g><polygon fill="#109BAD" points="30.881,40.617 22.703,40.617 22.703,56.371 28.1,56.371 30.881,56.371 34.248,56.371     34.248,44.242 30.881,44.242   "/><line fill="#0C597A" x1="30.881" x2="30.881" y1="46.242" y2="42.617"/><rect fill="#109BAD" height="8.785" width="4.645" x="47.652" y="47.586"/></g><rect fill="#10799E" height="29.324" width="13.404" x="34.248" y="27.047"/><rect fill="#0C597A" height="29.324" width="9.799" x="37.854" y="27.047"/><g><rect fill="#10799E" height="5.785" width="7.879" x="37.012" y="21.271"/><rect fill="#0C597A" height="5.785" width="4.461" x="40.43" y="21.271"/><rect fill="#10799E" height="6.688" width="3.143" x="39.379" y="14.584"/><rect fill="#0C597A" height="6.688" width="1.395" x="41.127" y="14.584"/></g><g><g><rect fill="#ED9015" height="2.584" width="2.584" x="37.252" y="30.951"/></g><g><rect fill="#ED9015" height="2.584" width="2.582" x="42.066" y="30.951"/></g></g><g><g><rect fill="#ED9015" height="2.584" width="2.584" x="37.252" y="35.701"/></g><g><rect fill="#ED9015" height="2.584" width="2.582" x="42.066" y="35.701"/></g></g><g><g><rect fill="#ED9015" height="2.584" width="2.584" x="37.252" y="40.451"/></g><g><rect fill="#ED9015" height="2.584" width="2.582" x="42.066" y="40.451"/></g></g><g><g><rect fill="#ED9015" height="2.584" width="2.584" x="37.252" y="45.201"/></g><g><rect fill="#ED9015" height="2.584" width="2.582" x="42.066" y="45.201"/></g></g><g><g><rect fill="#ED9015" height="2.584" width="2.584" x="37.252" y="49.951"/></g><g><rect fill="#ED9015" height="2.584" width="2.582" x="42.066" y="49.951"/></g></g></g></svg>