<svg xmlns="http://www.w3.org/2000/svg" enable-background="new 0 0 512 512" viewBox="0 0 512 512" id="mountain"><path fill="#765C2B" d="M64,272c-4.418,0-8-3.582-8-8v-56c0-4.418,3.582-8,8-8s8,3.582,8,8v56C72,268.418,68.418,272,64,272z"></path><polygon fill="#765C2B" points="336 264 96 264 216 24"></polygon><polygon fill="#A17D3A" points="416 288 224 288 289.28 146.56 320 80 351.66 148.6"></polygon><path fill="#478CBF" d="M24,256c0,128.13,103.87,232,232,232s232-103.87,232-232H24z"></path><path fill="#6ACD62" d="M483.02 304c-20.18 95.96-99.66 170.07-198.33 182.24-2.95-3.99-4.69-8.91-4.69-14.24 0-13.25 10.75-24 24-24h-40c-6.62 0-12.62-2.69-16.97-7.03-4.34-4.35-7.03-10.35-7.03-16.97 0-13.25 10.75-24 24-24h40c-4.42 0-8.42-1.79-11.32-4.68-2.89-2.9-4.68-6.9-4.68-11.32 0-8.84 7.16-16 16-16h64c-8.84 0-16.84-3.58-22.63-9.37-5.79-5.79-9.37-13.79-9.37-22.63 0-17.67 14.33-32 32-32H483.02zM192 384c0 13.25-10.75 24-24 24h-24c4.42 0 8.42 1.79 11.32 4.68 2.89 2.9 4.68 6.9 4.68 11.32 0 8.84-7.16 16-16 16h-29.33c-27.63-21.26-50.33-48.59-66.1-80H168c6.62 0 12.62 2.69 16.97 7.03C189.31 371.38 192 377.38 192 384zM120 264c0 11.04-4.48 21.04-11.72 28.28C101.04 299.52 91.04 304 80 304H28.98C25.71 288.51 24 272.46 24 256h95.2C119.72 258.59 120 261.26 120 264z"></path><polygon fill="#6ACD62" points="260 112 240 136 216 96 192 136 172.31 111.38 216 24"></polygon><polygon fill="#6ACD62" points="351.66 148.6 336 176 320 160 304 176 289.28 146.56 320 80"></polygon><circle cx="402.912" cy="96" r="40" fill="#EDCC55"></circle><path fill="#D85257" d="M402.912 40c-4.418 0-8-3.582-8-8v-8c0-4.418 3.582-8 8-8s8 3.582 8 8v8C410.912 36.418 407.33 40 402.912 40zM357.657 58.745c-2.047 0-4.095-.781-5.657-2.343l-5.657-5.657c-3.125-3.124-3.125-8.189 0-11.313 3.124-3.124 8.189-3.124 11.313 0l5.657 5.657c3.125 3.124 3.125 8.189 0 11.313C361.751 57.964 359.704 58.745 357.657 58.745zM402.912 176c-4.418 0-8-3.582-8-8v-8c0-4.418 3.582-8 8-8s8 3.582 8 8v8C410.912 172.418 407.33 176 402.912 176zM453.823 154.912c-2.047 0-4.095-.781-5.657-2.343l-5.657-5.657c-3.125-3.124-3.125-8.189 0-11.313 3.124-3.124 8.189-3.124 11.313 0l5.657 5.657c3.125 3.124 3.125 8.189 0 11.313C457.918 154.13 455.871 154.912 453.823 154.912zM474.912 104h-8c-4.418 0-8-3.582-8-8s3.582-8 8-8h8c4.418 0 8 3.582 8 8S479.33 104 474.912 104zM448.167 58.745c-2.047 0-4.095-.781-5.657-2.343-3.125-3.124-3.125-8.189 0-11.313l5.657-5.657c3.124-3.124 8.189-3.124 11.313 0 3.125 3.124 3.125 8.189 0 11.313l-5.657 5.657C452.261 57.964 450.214 58.745 448.167 58.745z"></path><path fill="#DFE9F0" d="M128,56c0-8.837-7.163-16-16-16c-3.54,0-6.8,1.163-9.45,3.109C98.833,32.005,88.355,24,76,24
	c-15.464,0-28,12.536-28,28v4c-13.255,0-24,10.745-24,24s10.745,24,24,24h80c13.255,0,24-10.745,24-24S141.255,56,128,56z"></path><polygon fill="#6ACD62" points="104 184 64 128 24 184 46.857 184 24 216 104 216 81.143 184"></polygon><path fill="#6ACD62" d="M440 224h-16l0 0c0-13.255-10.745-24-24-24s-24 10.745-24 24l0 0h-8c-8.837 0-16 7.163-16 16l0 0c0 8.837 7.163 16 16 16h8 24 16 8 16c8.837 0 16-7.163 16-16l0 0C456 231.163 448.837 224 440 224zM256 224h-16l0 0c0-13.255-10.745-24-24-24s-24 10.745-24 24l0 0h-8c-8.837 0-16 7.163-16 16l0 0c0 8.837 7.163 16 16 16h8 24 16 8 16c8.837 0 16-7.163 16-16l0 0C272 231.163 264.837 224 256 224z"></path><path d="M488,248h-25.376c0.888-2.504,1.376-5.196,1.376-8c0-13.233-10.767-24-24-24h-9.012c-3.562-13.787-16.104-24-30.988-24
		c-6.319,0-12.213,1.846-17.18,5.02L327.264,76.647C325.956,73.814,323.121,72,320,72s-5.956,1.814-7.264,4.647l-29.505,63.927
		L223.155,20.422C221.8,17.712,219.03,16,216,16s-5.8,1.712-7.155,4.422l-97.005,194.01c-0.218-1.091-0.659-2.144-1.33-3.083
		L96.688,192H104c2.997,0,5.742-1.675,7.113-4.339s1.138-5.872-0.604-8.311l-40-56C69.008,121.248,66.583,120,64,120
		s-5.008,1.248-6.51,3.35l-40,56c-1.742,2.438-1.975,5.646-0.604,8.311S21.003,192,24,192h7.312L17.49,211.35
		c-1.742,2.438-1.975,5.646-0.604,8.311S21.003,224,24,224h32v24H24c-4.418,0-8,3.582-8,8c0,64.106,24.964,124.376,70.294,169.706
		C131.625,471.036,191.894,496,256,496s124.376-24.964,169.706-70.294C471.036,380.376,496,320.106,496,256
		C496,251.582,492.418,248,488,248z M384,224c0-8.822,7.178-16,16-16s16,7.178,16,16c0,4.418,3.582,8,8,8h16c4.411,0,8,3.589,8,8
		s-3.589,8-8,8h-72c-4.411,0-8-3.589-8-8s3.589-8,8-8h8C380.418,232,384,228.418,384,224z M320,99.091l22.67,49.117l-8.418,14.729
		l-8.595-8.594c-3.124-3.124-8.189-3.124-11.313,0l-8.151,8.151l-8.037-16.073L320,99.091z M289.569,165.025l7.276,14.552
		c1.15,2.3,3.335,3.907,5.874,4.319c0.427,0.069,0.855,0.104,1.282,0.104c2.104,0,4.144-0.831,5.656-2.343L320,171.313
		l10.343,10.343c1.763,1.763,4.245,2.603,6.718,2.272c2.471-0.331,4.647-1.795,5.884-3.959l7.957-13.922l20.307,43.998
		c-0.92,1.89-1.662,3.88-2.198,5.954H368c-13.233,0-24,10.767-24,24c0,2.804,0.488,5.496,1.376,8h-66.752
		c0.888-2.504,1.376-5.196,1.376-8c0-9.977-6.122-18.55-14.805-22.165L289.569,165.025z M216,41.889l34.505,69.009l-9.44,11.328
		L222.86,91.884C221.414,89.475,218.81,88,216,88s-5.414,1.475-6.86,3.884l-18.08,30.133l-9.306-11.636L216,41.889z
		 M173.873,126.143l11.879,14.854c1.636,2.046,4.178,3.163,6.784,2.985c2.614-0.175,4.976-1.62,6.324-3.866L216,111.549
		l17.14,28.567c1.333,2.222,3.66,3.66,6.243,3.86c0.207,0.016,0.413,0.024,0.618,0.024c2.363,0,4.619-1.047,6.145-2.878
		l12.169-14.603l16.33,32.66L248.42,216h-1.432c-3.562-13.787-16.104-24-30.988-24s-27.426,10.213-30.988,24H184
		c-13.233,0-24,10.767-24,24c0,2.804,0.488,5.496,1.376,8h-48.432L173.873,126.143z M264,240c0,4.411-3.589,8-8,8h-72
		c-4.411,0-8-3.589-8-8s3.589-8,8-8h8c4.418,0,8-3.582,8-8c0-8.822,7.178-16,16-16s16,7.178,16,16c0,4.418,3.582,8,8,8h16
		C260.411,232,264,235.589,264,240z M104,224c1.221,0,2.394-0.291,3.456-0.801L95.056,248H72v-24H104z M39.545,208l13.821-19.35
		c1.742-2.438,1.975-5.646,0.604-8.311S49.854,176,46.857,176h-7.312L64,141.764L88.455,176h-7.312
		c-2.997,0-5.742,1.675-7.113,4.339s-1.138,5.872,0.604,8.311L88.455,208H39.545z M32.139,264H112c0,8.542-3.33,16.577-9.376,22.623
		C96.577,292.67,88.542,296,80,296H35.544C33.663,285.508,32.516,274.822,32.139,264z M97.608,414.392
		c-14.052-14.052-26-29.644-35.701-46.392H168c4.266,0,8.286,1.667,11.307,4.681C182.333,375.714,184,379.734,184,384
		c0,8.822-7.178,16-16,16h-24c-4.418,0-8,3.582-8,8s3.582,8,8,8c2.14,0,4.154,0.833,5.653,2.328C151.167,419.846,152,421.86,152,424
		c0,4.411-3.589,8-8,8h-26.596C110.521,426.558,103.907,420.691,97.608,414.392z M414.392,414.392
		c-34.421,34.421-78.072,56.258-125.372,63.204c-0.665-1.773-1.02-3.657-1.02-5.596c0-8.822,7.178-16,16-16c4.418,0,8-3.582,8-8
		s-3.582-8-8-8h-40c-4.266,0-8.286-1.667-11.307-4.68C249.667,432.286,248,428.266,248,424c0-8.822,7.178-16,16-16h40
		c4.418,0,8-3.582,8-8s-3.582-8-8-8c-2.14,0-4.154-0.833-5.653-2.327C296.833,388.155,296,386.14,296,384c0-4.411,3.589-8,8-8h64
		c4.418,0,8-3.582,8-8s-3.582-8-8-8c-6.414,0-12.441-2.496-16.973-7.027C346.496,348.441,344,342.414,344,336
		c0-13.233,10.767-24,24-24h104.972C463.131,350.405,443.161,385.623,414.392,414.392z M476.456,296H368c-22.056,0-40,17.944-40,40
		c0,8.773,2.804,17.115,7.986,24H304c-13.233,0-24,10.767-24,24c0,2.767,0.465,5.462,1.359,8H264c-17.645,0-32,14.355-32,32
		c0,8.533,3.327,16.567,9.38,22.633c6.054,6.04,14.087,9.367,22.62,9.367h12.294c-2.73,4.709-4.294,10.176-4.294,16
		c0,2.516,0.309,4.982,0.878,7.376C267.29,479.79,261.661,480,256,480c-41.367,0-81.018-11.144-115.537-32H144
		c13.234,0,24-10.766,24-24c0-2.767-0.465-5.462-1.359-8H168c17.645,0,32-14.355,32-32c0-8.534-3.327-16.567-9.379-22.633
		C184.567,355.327,176.534,352,168,352H53.5c-6.09-12.822-10.937-26.204-14.472-40H80c12.815,0,24.868-4.994,33.937-14.063
		C123.006,288.868,128,276.815,128,264h351.861C479.484,274.822,478.337,285.508,476.456,296z"></path><path d="M402.912 144c26.467 0 48-21.533 48-48s-21.533-48-48-48-48 21.533-48 48S376.444 144 402.912 144zM402.912 64c17.645 0 32 14.355 32 32s-14.355 32-32 32-32-14.355-32-32S385.267 64 402.912 64zM402.912 40c4.418 0 8-3.582 8-8v-8c0-4.418-3.582-8-8-8s-8 3.582-8 8v8C394.912 36.418 398.493 40 402.912 40zM352 56.402c1.562 1.562 3.609 2.343 5.657 2.343s4.095-.781 5.657-2.343c3.125-3.124 3.125-8.189 0-11.313l-5.657-5.657c-3.124-3.124-8.189-3.124-11.313 0-3.125 3.124-3.125 8.189 0 11.313L352 56.402zM394.912 160v8c0 4.418 3.582 8 8 8s8-3.582 8-8v-8c0-4.418-3.582-8-8-8S394.912 155.582 394.912 160zM453.823 135.598c-3.124-3.124-8.189-3.124-11.313 0-3.125 3.124-3.125 8.189 0 11.313l5.657 5.657c1.562 1.562 3.609 2.343 5.657 2.343s4.095-.781 5.657-2.343c3.125-3.124 3.125-8.189 0-11.313L453.823 135.598zM458.912 96c0 4.418 3.582 8 8 8h8c4.418 0 8-3.582 8-8s-3.582-8-8-8h-8C462.493 88 458.912 91.582 458.912 96zM448.167 58.745c2.047 0 4.095-.781 5.657-2.343l5.657-5.657c3.125-3.124 3.125-8.189 0-11.313-3.124-3.124-8.189-3.124-11.313 0l-5.657 5.657c-3.125 3.124-3.125 8.189 0 11.313C444.072 57.964 446.119 58.745 448.167 58.745zM48 112h80c17.645 0 32-14.355 32-32 0-15.284-10.771-28.1-25.121-31.255C131.796 39.046 122.706 32 112 32c-1.916 0-3.8.225-5.626.666C99.877 22.442 88.52 16 76 16c-18.834 0-34.336 14.537-35.875 32.98C26.275 52.498 16 65.071 16 80 16 97.645 30.355 112 48 112zM48 64c4.418 0 8-3.582 8-8v-4c0-11.028 8.972-20 20-20 8.61 0 16.231 5.485 18.964 13.649.812 2.423 2.731 4.313 5.167 5.086 2.434.773 5.093.335 7.154-1.177C108.253 48.847 109.856 48 112 48c4.411 0 8 3.589 8 8 0 4.418 3.582 8 8 8 8.822 0 16 7.178 16 16s-7.178 16-16 16H48c-8.822 0-16-7.178-16-16S39.178 64 48 64z"></path></svg>